# xmcd
#
# Track frame offsets: 
#        150
#        17571
#        32041
#        45653
#        60098
#        80225
#        93721
#        106537
#        123085
#        139210
#        154125
#        171717
#
# Disc length: 2464 seconds
#
# Revision: 0
# Processed by: cddbd v1.5.2PL0 Copyright (c) Steve Scherf et al.
# Submitted via: ExactAudioCopy v1.3
#
DISCID=97099e0c
DTITLE=Steve Forbert - The Magic Tree
DYEAR=2018
DGENRE=Folk/Rock
TTITLE0=The Magic Tree (Version 1)
TTITLE1=That'd Be Alright
TTITLE2=Carolina Blue Sky Blues
TTITLE3=Let's Get High
TTITLE4=Tryna Let It Go
TTITLE5=Lookin' At The River In The Rain
TTITLE6=Diamond Sky
TTITLE7=Movin' Through America
TTITLE8=I Ain't Got Time
TTITLE9=The Magic Tree (Version 2)
TTITLE10=Only You (And Nobody Else)
TTITLE11=The Music Of The Night
EXTD=
EXTT0=
EXTT1=
EXTT2=
EXTT3=
EXTT4=
EXTT5=
EXTT6=
EXTT7=
EXTT8=
EXTT9=
EXTT10=
EXTT11=
PLAYORDER=
